<svg width="132" height="24" viewBox="0 0 132 24" xmlns="http://www.w3.org/2000/svg"><g fill="none" fill-rule="evenodd"><path d="M18.254 20.41l-.21-.59 2.517-7.082 1.147 3.23c-.732 1.775-1.934 3.31-3.453 4.443zm-2.388 1.336l-1.037-2.92-1.26 3.55c-.107.016-.214.027-.32.04l-.922-2.595 2.517-7.082 2.858 8.054c-.576.376-1.19.696-1.837.954zm-1.56.487l.523-1.476.43 1.21c-.313.104-.63.192-.955.266zm-3.932.143l-1.262-3.55-1.037 2.92c-.318-.127-.63-.27-.93-.426l-.533-1.5 2.516-7.082 3.457 9.74c-.204.01-.408.02-.614.02-.542 0-1.075-.043-1.596-.122zm-1.69-.408l.428-1.21.525 1.475c-.324-.074-.642-.162-.954-.265zm-6.433-5.96l1.162-3.27 2.868 8.08c-1.786-1.152-3.203-2.828-4.03-4.81zm3.663-4.167l-1.067 3.007-1.434-4.04-1.507 4.242c-.3-.975-.46-2.01-.46-3.08 0-2.43.83-4.67 2.22-6.454l2.248 6.325zm-.118-8.386l1.547 4.36-1.086 3.06-2.11-5.936c.496-.55 1.05-1.047 1.65-1.484zm6.176-2.01c.172 0 .343.005.512.013l-.497 1.4-.497-1.4c.16-.007.32-.013.483-.013zm4.992 1.26l1.813 5.11-1.087 3.06-2.86-8.047-1.426 4.02-1.074-3.024.82-2.31c1.367.152 2.656.566 3.814 1.192zm2.834 2.235l-.678 1.907-1.282-3.613c.72.486 1.38 1.06 1.96 1.705zm-4.967-.18l2.515 7.08-1.066 3.007-1.435-4.04-2.86 8.048-1.08-3.042L14.83 4.76zM7.684 6.846L6.348 3.08c1.322-.84 2.84-1.393 4.473-1.57l2.24 6.304-1.088 3.06-2.86-8.047-1.427 4.02zM9.113 4.76l2.516 7.08-1.068 3.007-1.434-4.04-2.86 8.048-1.08-3.042L9.114 4.76zm13.384 7.21c0 .69-.07 1.36-.195 2.013l-.307.864-1.434-4.04-2.858 8.048-1.08-3.042 3.655-10.297c1.39 1.784 2.22 4.023 2.22 6.455zm1.444 0c0-.454-.027-.903-.076-1.345-.304-2.59-1.395-4.888-3.027-6.688l-.055-.06C18.95 1.885 16.452.515 13.644.12c-.218-.03-.438-.055-.66-.074C12.65.018 12.312 0 11.97 0c-.33 0-.658.017-.983.044C7.9.297 5.14 1.722 3.16 3.877l-.056.06c-.553.61-1.042 1.278-1.46 1.992-.148.25-.287.504-.415.765C.74 7.688.384 8.758.185 9.882c-.04.226-.074.454-.1.685-.034.29-.056.528-.07.768-.01.212-.016.423-.016.636 0 4.83 2.876 8.997 7.003 10.888.193.088.388.17.585.25 1.053.413 2.164.682 3.324.784.35.03.702.05 1.06.05.602 0 1.194-.047 1.773-.133.687-.103 1.354-.267 1.998-.48.206-.07.408-.143.607-.222.645-.255 1.264-.56 1.85-.92.19-.115.373-.237.556-.363.347-.24.68-.497.998-.77.417-.36.81-.743 1.173-1.154 1.873-2.113 3.014-4.89 3.014-7.93z" fill="#37B877"/><path d="M34.222 11.794h-1.756V8.68h1.756c1.05 0 1.656.59 1.656 1.525v.066c0 .984-.738 1.524-1.656 1.524M37.94 9.99c0-1.932-1.46-3.08-3.277-3.08h-4.208V17.4h2.01v-3.82h1.446l2.328 3.82h2.31l-2.77-4.245c1.31-.524 2.162-1.523 2.162-3.162M42.576 12.924h4.82v-1.77h-4.82V8.68h5.194V6.91h-7.206V17.4h7.485V15.61h-5.474M50.704 17.398h2.012v-4.114h4.654V11.5h-4.654V8.68h5.032V6.91h-7.044M67.137 12.285c0 2.147-1.165 3.474-2.934 3.474-1.75 0-2.93-1.328-2.93-3.475v-.26c0-2.148 1.18-3.492 2.93-3.492 1.77 0 2.934 1.344 2.934 3.49v.262zm-2.934-5.54c-2.868 0-4.947 1.984-4.947 5.195v.428c0 3.21 2.08 5.194 4.947 5.194 2.885 0 4.964-1.983 4.964-5.194v-.428c0-3.21-2.08-5.194-4.964-5.194zM75.473 11.794h-1.75V8.68h1.75c1.05 0 1.657.59 1.657 1.525v.066c0 .984-.74 1.524-1.657 1.524m3.722-1.803c0-1.932-1.458-3.08-3.276-3.08h-4.214V17.4h2.016v-3.82h1.44l2.328 3.82h2.313l-2.772-4.245c1.31-.524 2.165-1.523 2.165-3.162M83.83 12.924h4.818v-1.77H83.83V8.68h5.196V6.91h-7.21V17.4h7.49V15.61H83.83M95.102 6.91v.002c-2.26.017-3.587 1.206-3.587 3 0 3.76 5.18 2.68 5.18 4.778 0 .693-.59 1.112-1.638 1.112-1.085 0-2.116-.5-2.737-1.225l-1.314 1.258c.788 1.033 2.278 1.727 4.033 1.727 2.308 0 3.735-1.146 3.735-3.02 0-3.644-5.262-2.66-5.262-4.71 0-.774.64-1.162 1.508-1.162.028 0 .055-.006.082-.01v.02h7.408v8.718h2.017v-8.72h3.146V6.91h-12.57zM115.68 13.498c0 1.588-.85 2.228-2.178 2.228-1.328 0-2.18-.64-2.18-2.228V6.91h-2.015v6.572c0 2.768 1.737 4.08 4.213 4.08 2.44 0 4.177-1.312 4.177-4.08v-6.57h-2.017v6.586zM128.197 6.91l-2.39 7.915-2.525-7.915h-2.7v10.488h1.85V9.762l2.308 7.636h2.116l2.36-7.686v7.686h1.835V6.91" fill="#1C1C1C"/></g></svg>
